<svg xmlns="http://www.w3.org/2000/svg" viewBox="0 0 800 500">
  <rect x="-12.537" y="-6.777" width="843.352" height="507.495" style="stroke: rgb(0, 0, 0); fill: rgb(255, 255, 255);" transform="matrix(1, 0, 0, 1, 0, 1.4210854715202004e-14)"/>
  <g id="svgg" transform="matrix(1, 0, 0, 1, -1.6284899954272873, 78.1676952565863)">
    <path id="path0" d="M 507.278 83.654 C 506.924 83.922 506.177 84.146 505.618 84.152 C 505.06 84.158 504.313 84.382 503.958 84.65 C 503.604 84.918 503.026 85.142 502.674 85.148 C 501.965 85.16 500.223 85.685 498.617 86.371 C 498.041 86.617 497.131 86.818 496.593 86.818 C 494.71 86.818 494.652 86.98 492.847 97.275 C 492.687 98.188 492.319 100.204 492.028 101.756 C 491.737 103.308 491.387 105.325 491.249 106.237 C 491.044 107.595 490.515 109.076 490.023 109.663 C 489.975 109.721 489.659 109.623 489.322 109.445 C 480.874 104.985 465.665 107.362 454.503 114.886 L 450.837 117.358 L 437.905 117.353 C 430.793 117.35 420.044 117.194 414.02 117.005 C 406.184 116.76 394.791 116.776 374.005 117.062 C 342.801 117.492 344.023 117.534 342.816 116 C 341.832 114.75 333.8 110.365 330.7 109.386 C 329.97 109.155 328.999 108.842 328.542 108.689 C 327.046 108.19 322.758 107.4 321.544 107.4 C 319.911 107.399 319.752 106.682 318.746 94.785 C 318.646 93.598 318.495 92.307 318.41 91.915 C 318.261 91.224 316.057 89.806 315.132 89.806 C 314.888 89.806 313.667 89.283 312.419 88.644 C 309.83 87.318 305.777 87.023 303.148 87.971 C 302.418 88.234 300.97 88.456 299.931 88.464 C 298.892 88.472 297.95 88.628 297.837 88.81 C 297.724 88.993 296.537 89.142 295.2 89.142 C 293.688 89.142 292.408 89.33 291.817 89.638 C 291.294 89.911 290.115 90.135 289.197 90.136 C 287.059 90.138 286.595 90.489 284.048 94.021 C 282.89 95.628 281.448 97.53 280.844 98.247 C 280.24 98.965 279.746 99.721 279.746 99.928 C 279.746 100.135 279.298 100.733 278.75 101.258 C 278.202 101.783 277.754 102.385 277.754 102.597 C 277.754 102.808 277.443 103.262 277.063 103.606 C 276.469 104.144 276.403 104.465 276.595 105.898 C 276.717 106.815 276.884 110.564 276.966 114.229 L 277.115 120.893 L 272.041 123.439 C 263.602 127.672 262.669 128.286 262.271 129.879 C 261.123 134.471 257.267 140.79 254.258 143.011 C 249.378 146.612 246.949 150.018 243.551 158.022 C 243.396 158.387 242.871 159.582 242.385 160.677 C 241.898 161.773 241.227 163.36 240.893 164.204 C 240.559 165.049 239.992 166.393 239.632 167.192 C 239.273 167.991 237.984 171.109 236.769 174.121 C 235.554 177.134 234.435 179.897 234.281 180.262 C 234.127 180.628 233.626 181.897 233.168 183.084 C 231.353 187.784 230.51 189.932 230.108 190.885 C 229.877 191.432 229.462 192.553 229.188 193.374 C 228.913 194.196 228.506 195.316 228.283 195.864 C 227.511 197.765 227.346 198.2 226.494 200.594 C 224.84 205.241 223.971 207.669 223.163 209.889 C 222.195 212.553 217.819 225.816 216.51 230.055 C 216.003 231.698 215.398 233.64 215.167 234.37 C 214.667 235.95 213.151 241.128 212.64 243.001 C 212.441 243.731 212.087 245.001 211.852 245.823 C 211.618 246.644 211.351 247.615 211.258 247.98 C 210.895 249.416 209.685 254.018 209.383 255.117 C 208.721 257.522 206.743 266.172 206.043 269.723 C 204.706 276.51 204.619 277.018 203.589 284.163 C 201.145 301.105 200.842 317.401 202.762 328.644 C 203.538 333.185 205.218 339.524 206.082 341.171 C 206.249 341.488 206.385 341.899 206.385 342.085 C 206.385 342.883 209.529 348.918 211.411 351.732 C 216.842 359.852 227.051 367.17 236.426 369.663 C 244.057 371.693 244.106 371.696 246.714 370.125 C 250.534 367.825 258.015 360.681 270.123 347.77 C 275.374 342.171 282.204 335.247 285.721 331.959 C 289.227 328.68 294.606 323.797 296.177 322.466 C 296.907 321.848 297.58 321.267 297.671 321.176 C 299.133 319.709 308.479 312.155 311.447 310.042 C 315.275 307.316 319.15 305.578 323.729 304.534 C 326.668 303.864 469.13 303.858 472.111 304.527 C 474.235 305.005 475.704 305.522 478.51 306.78 C 479.473 307.212 480.329 307.565 480.412 307.565 C 480.544 307.565 482.867 309.068 485.032 310.553 C 487.006 311.907 499.665 322.414 502.015 324.649 C 502.214 324.838 503.782 326.257 505.501 327.802 C 509.736 331.609 521.325 343.224 528.366 350.719 C 536.024 358.869 543.202 365.969 545.554 367.718 C 546.604 368.499 547.538 369.229 547.629 369.339 C 549.081 371.093 552.178 371.598 555.685 370.653 C 571.197 366.471 581.367 358.606 587.576 345.992 C 588.987 343.124 591.779 335.268 591.779 334.163 C 591.779 333.892 591.92 333.212 592.093 332.651 C 592.437 331.535 593.184 326.934 593.745 322.486 C 594.202 318.856 594.209 303.867 593.756 299.101 C 593.179 293.025 592.437 286.271 592.115 284.163 C 590.812 275.623 590.538 274.097 588.797 265.74 C 588.369 263.68 587.499 259.837 587.146 258.437 C 585.929 253.619 585.185 250.758 584.642 248.81 C 584.413 247.989 584.039 246.644 583.812 245.823 C 582.532 241.198 581.266 236.855 579.942 232.545 C 578.002 226.234 577.414 224.381 577.15 223.748 C 576.997 223.383 576.579 222.113 576.219 220.926 C 575.546 218.7 574.293 214.957 573.832 213.789 C 573.687 213.424 573.269 212.229 572.903 211.134 C 572.537 210.038 571.612 207.424 570.849 205.325 C 570.085 203.225 569.385 201.169 569.294 200.755 C 569.202 200.342 568.995 199.922 568.835 199.823 C 568.674 199.724 568.542 199.412 568.542 199.131 C 568.542 198.85 568.333 198.149 568.077 197.574 C 567.82 196.999 567.211 195.408 566.722 194.038 C 566.233 192.669 565.714 191.25 565.568 190.885 C 565.422 190.52 565.042 189.549 564.725 188.727 C 564.407 187.906 564.029 186.935 563.884 186.569 C 563.739 186.204 563.152 184.71 562.578 183.25 C 562.005 181.789 561.375 180.221 561.177 179.764 C 560.98 179.308 560.704 178.636 560.563 178.271 C 559.778 176.235 557.429 170.447 556.925 169.308 C 556.602 168.578 555.641 166.289 554.79 164.222 C 549.157 150.546 547.166 147.285 542.209 143.624 C 540.521 142.377 538.85 140.924 538.497 140.395 C 536.837 137.911 534.866 133.94 533.683 130.696 C 532.723 128.064 531.786 127.385 523.639 123.418 C 520.133 121.712 519.568 121.019 520.544 119.626 C 520.835 119.21 521.073 118.24 521.073 117.47 C 521.073 116.699 521.223 115.977 521.405 115.864 C 521.588 115.751 521.737 115.103 521.737 114.425 C 521.737 113.746 521.943 112.896 522.194 112.535 C 522.445 112.175 522.732 111.283 522.831 110.553 C 523.127 108.38 523.526 106.72 524.755 102.562 C 524.921 102.002 525.057 101.236 525.057 100.86 C 525.057 100.485 525.28 99.644 525.552 98.993 C 525.826 98.337 525.914 97.726 525.748 97.624 C 525.584 97.523 525.188 96.581 524.868 95.531 C 524.548 94.482 524.086 93.388 523.842 93.099 C 523.597 92.811 523.397 92.26 523.397 91.874 C 523.397 91.488 523.248 91.081 523.065 90.968 C 522.883 90.855 522.733 90.483 522.733 90.141 C 522.733 89.457 521.115 88.146 520.271 88.146 C 519.734 88.146 519.469 88.038 517.537 87.032 C 516.961 86.732 516.259 86.486 515.978 86.486 C 515.696 86.486 514.763 86.113 513.905 85.657 C 513.046 85.2 512.14 84.827 511.891 84.827 C 511.434 84.827 511.144 84.705 509.238 83.712 C 507.971 83.053 508.07 83.055 507.278 83.654 M 508.938 85.335 C 509.292 85.603 509.844 85.823 510.165 85.823 C 510.486 85.823 511.45 86.196 512.309 86.652 C 513.167 87.109 514.073 87.482 514.322 87.482 C 514.779 87.482 515.07 87.604 516.975 88.597 C 517.551 88.897 518.328 89.142 518.701 89.142 C 519.371 89.142 521.073 91.003 521.073 91.735 C 521.073 91.94 521.318 92.672 521.617 93.363 C 521.917 94.054 522.275 94.918 522.414 95.283 C 523.48 98.087 523.49 98.146 523.128 99.367 C 522.928 100.042 522.695 100.968 522.609 101.424 C 522.523 101.881 522.208 103.15 521.908 104.246 C 521.331 106.356 520.914 108.161 520.471 110.47 C 520.322 111.246 520.023 112.207 519.807 112.606 C 519.591 113.004 519.414 113.855 519.414 114.495 C 519.414 115.135 519.286 115.738 519.129 115.835 C 518.973 115.931 518.754 116.778 518.643 117.715 C 518.269 120.867 518.022 120.876 511.965 117.982 C 511.247 117.639 510.541 117.358 510.398 117.358 C 510.254 117.358 509.349 117.001 508.385 116.565 C 506.693 115.799 504.358 114.862 499.829 113.13 C 495.868 111.616 495.355 111.426 494.075 110.994 C 492.66 110.517 492.695 110.797 493.497 106.403 C 493.68 105.399 493.995 103.607 494.197 102.42 C 494.398 101.233 494.702 99.804 494.872 99.243 C 495.042 98.682 495.181 97.744 495.181 97.158 C 495.181 96.571 495.405 95.555 495.679 94.9 C 495.953 94.245 496.177 92.992 496.177 92.117 C 496.177 90.053 497.253 87.482 498.117 87.482 C 498.466 87.482 499.288 87.258 499.943 86.984 C 500.599 86.71 501.579 86.486 502.122 86.486 C 502.665 86.486 503.201 86.337 503.314 86.154 C 503.427 85.972 503.792 85.823 504.126 85.823 C 504.459 85.823 505.16 85.599 505.683 85.327 C 506.879 84.703 508.106 84.706 508.938 85.335 M 310.492 89.474 C 311.903 90.204 313.232 90.802 313.446 90.802 C 314.312 90.802 315.937 91.892 316.082 92.569 C 316.25 93.357 316.449 95.163 316.927 100.262 C 317.098 102.088 317.331 104.441 317.444 105.491 L 317.649 107.399 L 316.042 107.4 C 314.486 107.4 310.496 108.103 308.459 108.735 C 306.202 109.437 302.108 110.792 301.488 111.042 C 301.123 111.19 299.107 111.937 297.007 112.703 C 294.907 113.468 292.891 114.223 292.526 114.382 C 292.161 114.54 289.797 115.503 287.274 116.523 C 284.751 117.543 282.398 118.521 282.046 118.697 C 281.694 118.873 281.089 119.179 280.702 119.377 C 279.565 119.958 279.452 119.472 279.298 113.373 C 279.217 110.179 279.048 106.954 278.921 106.208 C 278.686 104.825 280.031 102.039 281.538 100.788 C 281.83 100.546 282.071 100.179 282.072 99.973 C 282.074 99.767 282.597 99.048 283.234 98.376 C 283.871 97.703 284.393 96.999 284.393 96.811 C 284.393 96.622 284.816 95.977 285.334 95.378 C 285.852 94.778 286.666 93.703 287.144 92.988 C 288.172 91.452 289.702 90.814 292.376 90.807 C 293.39 90.804 294.394 90.626 294.609 90.411 C 294.824 90.197 296.235 89.894 297.746 89.739 C 303.575 89.14 305.168 88.911 305.97 88.556 C 307.292 87.97 307.775 88.068 310.492 89.474 M 323.26 108.88 C 330.497 110.003 336.171 112.467 342.163 117.086 C 342.798 117.576 343.727 118.132 344.228 118.323 C 345.93 118.969 345.088 121.489 341.015 127.941 C 340.545 128.685 340.161 129.375 340.161 129.473 C 340.161 129.571 339.444 130.807 338.568 132.22 C 337.691 133.633 336.874 135.049 336.752 135.368 C 336.428 136.212 335.663 136.077 334.851 135.034 C 327.581 125.69 320.731 122.679 310.489 124.323 C 309.373 124.502 306.966 124.884 305.14 125.171 C 299.973 125.985 291.142 128.099 287.878 129.304 C 287.513 129.439 286.393 129.809 285.389 130.126 C 283.525 130.714 279.449 132.136 278.252 132.614 C 277.887 132.76 276.916 133.14 276.094 133.457 C 273.298 134.538 271.412 135.325 269.031 136.405 C 267.976 136.883 267.037 137.275 266.943 137.275 C 266.766 137.275 263.762 138.656 260.351 140.306 C 259.269 140.83 258.338 141.258 258.283 141.258 C 258.228 141.258 258.469 140.773 258.819 140.179 C 259.464 139.087 261.999 134.014 262.509 132.793 C 262.662 132.428 263.023 131.538 263.311 130.815 C 263.904 129.33 264.416 128.802 266.307 127.724 C 268.834 126.282 281.774 120.013 282.222 120.013 C 282.295 120.013 283.323 119.565 284.506 119.018 C 285.69 118.47 286.748 118.022 286.857 118.022 C 286.966 118.022 287.689 117.735 288.463 117.384 C 289.237 117.033 291.513 116.12 293.522 115.356 C 298.313 113.533 298.339 113.523 299.494 113.054 C 300.04 112.833 302.43 112.013 304.805 111.232 C 313.323 108.43 317.189 107.938 323.26 108.88 M 481.316 108.753 C 484.415 109.212 489.67 110.568 490.379 111.092 C 490.568 111.231 490.941 111.206 491.209 111.037 C 492.013 110.528 492.77 110.678 492.953 111.381 C 493.049 111.745 493.328 112.106 493.573 112.182 C 495.004 112.628 499.953 114.436 502.318 115.378 C 507.869 117.587 512.868 119.7 515.325 120.877 C 517.002 121.68 518.458 122.337 518.562 122.337 C 519.055 122.337 528.688 127.277 531.095 128.764 C 531.403 128.955 531.909 129.715 532.219 130.454 C 534.197 135.173 535.231 137.381 536.372 139.315 C 537.623 141.436 537.627 141.434 534.929 140.1 C 530.027 137.677 521.935 134.485 513.937 131.821 C 508.915 130.149 505.954 129.252 500.161 127.648 C 499.339 127.421 497.995 127.044 497.173 126.812 C 496.351 126.579 494.932 126.214 494.02 126 C 493.107 125.786 491.538 125.415 490.534 125.176 C 476.635 121.863 470.7 123.365 462.905 132.168 C 461.057 134.255 459.406 135.917 459.237 135.86 C 458.873 135.739 453.057 125.948 450.809 121.673 C 449.881 119.909 450.23 118.866 452.086 117.856 C 452.757 117.491 454.652 116.282 456.297 115.169 C 458.783 113.489 462.229 111.754 465.804 110.383 C 470.04 108.758 476.659 108.063 481.316 108.753 M 447.965 118.564 C 448.424 118.687 448.789 119.104 448.905 119.638 C 449.24 121.185 449.803 122.445 451.43 125.289 C 452.307 126.822 453.024 128.13 453.024 128.197 C 453.024 128.265 453.771 129.511 454.683 130.968 C 455.596 132.424 456.343 133.7 456.343 133.803 C 456.343 133.906 456.717 134.54 457.173 135.212 C 458.539 137.222 458.34 137.55 450.897 145.574 C 449.965 146.578 447.937 148.818 446.39 150.553 C 444.843 152.287 442.426 154.901 441.02 156.362 C 439.613 157.823 437.983 159.58 437.397 160.268 C 435.393 162.621 431.917 164.595 427.862 165.683 C 425.269 166.378 368.955 166.383 366.286 165.688 C 361.933 164.554 359.212 162.278 351.164 153.041 C 350.37 152.129 348.951 150.561 348.01 149.557 C 347.07 148.553 345.715 147.059 344.998 146.237 C 344.282 145.416 342.266 143.197 340.517 141.306 C 336.596 137.064 336.68 137.722 339.476 133.114 C 340.765 130.988 341.82 129.185 341.82 129.106 C 341.82 129.027 342.171 128.406 342.6 127.725 C 344.336 124.969 345.922 121.81 346.286 120.383 C 346.58 119.231 346.864 118.819 347.483 118.646 C 348.486 118.366 446.926 118.285 447.965 118.564 M 485.721 125.374 C 487.649 125.784 491.185 126.578 492.858 126.977 C 494.709 127.419 500.785 129.072 505.14 130.318 C 507.776 131.072 517.165 134.193 520.078 135.284 C 521.629 135.865 523.237 136.419 523.651 136.515 C 524.064 136.611 524.484 136.822 524.583 136.982 C 524.683 137.143 524.975 137.275 525.233 137.275 C 525.683 137.275 526.329 137.548 531.53 139.939 C 535.922 141.959 537.177 142.583 538.833 143.575 C 539.746 144.122 540.717 144.675 540.99 144.804 C 544.856 146.625 548.209 151.282 551.226 159.018 C 551.582 159.93 552.272 161.574 552.758 162.669 C 553.244 163.764 553.768 164.959 553.922 165.325 C 554.076 165.69 554.498 166.661 554.858 167.482 C 555.219 168.304 555.994 170.171 556.58 171.632 C 557.166 173.092 557.774 174.586 557.932 174.951 C 558.089 175.316 558.837 177.184 559.594 179.101 C 560.35 181.018 561.161 183.034 561.396 183.582 C 561.631 184.13 562.751 187.042 563.884 190.055 C 565.017 193.067 566.063 195.831 566.208 196.196 C 566.958 198.088 567.58 199.748 568.352 201.922 C 569.709 205.745 570.803 208.801 571.677 211.217 C 572.751 214.183 577.174 227.46 577.511 228.727 C 577.656 229.275 578.173 230.993 578.66 232.545 C 579.897 236.488 581.248 241.109 582.52 245.74 C 582.683 246.333 582.95 247.304 583.113 247.897 C 584.161 251.699 585.586 257.12 585.797 258.105 C 585.934 258.744 586.371 260.686 586.769 262.42 C 588.018 267.873 588.083 268.17 588.612 270.885 C 589.627 276.09 590.108 278.982 591.124 285.989 C 593.732 303.98 593.642 317.137 590.804 332.959 C 587.464 351.587 573.788 365.171 553.614 369.903 C 549.899 370.774 545.354 366.942 526.895 347.379 C 520.188 340.27 512.596 332.69 507.296 327.807 C 503.035 323.883 495.781 317.513 493.988 316.122 C 493.458 315.711 492.539 314.938 491.946 314.405 C 491.353 313.871 489.14 312.131 487.028 310.538 C 482.273 306.948 478.874 305.218 473.273 303.533 C 471.067 302.87 324.882 302.864 322.401 303.528 C 320.53 304.028 318.892 304.637 316.334 305.784 C 315.371 306.216 314.499 306.569 314.398 306.569 C 313.4 306.569 298.483 318.528 291.832 324.659 C 291.634 324.843 289.766 326.553 287.683 328.461 C 282.819 332.914 275.092 340.659 267.958 348.229 C 251.481 365.717 245.513 370.861 242.691 370.01 C 242.167 369.852 240.916 369.534 239.912 369.303 C 237.865 368.833 234.941 367.93 233.439 367.305 C 230.86 366.232 230.013 365.856 228.625 365.167 C 206.233 354.047 198.456 327.409 204.88 283.831 C 205.176 281.823 205.548 279.283 205.707 278.188 C 205.866 277.092 206.161 275.374 206.362 274.37 C 206.564 273.366 206.888 271.723 207.082 270.719 C 207.276 269.715 207.568 268.296 207.731 267.565 C 209.531 259.506 210.293 256.289 211.191 252.959 C 211.486 251.864 211.888 250.37 212.084 249.64 C 212.281 248.91 212.629 247.64 212.858 246.818 C 213.087 245.997 213.437 244.727 213.636 243.997 C 214.005 242.644 215.092 238.936 216.603 233.872 C 217.066 232.32 218.11 229.034 218.922 226.569 C 219.735 224.105 220.519 221.64 220.665 221.092 C 220.935 220.077 223.371 212.945 224.831 208.893 C 225.275 207.661 226.022 205.569 226.492 204.246 C 226.962 202.922 227.55 201.316 227.797 200.677 C 228.044 200.038 228.793 198.022 229.46 196.196 C 230.558 193.189 231.209 191.455 231.952 189.557 C 232.095 189.192 232.587 187.922 233.046 186.735 C 234.781 182.244 236.655 177.585 236.95 177.03 C 237.118 176.713 237.256 176.307 237.256 176.127 C 237.256 175.947 237.614 175.011 238.052 174.047 C 238.49 173.084 239.33 171.101 239.92 169.64 C 240.509 168.179 241.495 165.89 242.111 164.553 C 242.727 163.216 243.231 162.007 243.231 161.866 C 243.231 161.725 243.444 161.175 243.703 160.645 C 243.963 160.115 244.646 158.636 245.221 157.358 C 249.683 147.438 250.513 146.555 259.497 142.175 C 272.15 136.005 284.872 131.052 293.356 128.992 C 293.995 128.837 295.712 128.412 297.173 128.048 C 306.067 125.833 315.03 124.722 319.006 125.342 C 324.344 126.174 326.655 127.812 334.199 136.115 C 335.754 137.827 340.981 143.604 341.986 144.723 C 344.881 147.944 345.847 149.009 347.275 150.553 C 348.204 151.557 350.755 154.394 352.944 156.857 C 355.133 159.319 357.148 161.574 357.422 161.866 C 358.328 162.832 361.546 165.228 362.396 165.569 C 362.855 165.754 363.978 166.215 364.891 166.594 C 366.775 167.377 421.497 167.915 426.174 167.197 C 433.009 166.147 436.265 163.85 445.057 153.874 C 445.331 153.563 446.451 152.28 447.546 151.022 C 448.642 149.764 450.733 147.462 452.194 145.906 C 454.625 143.315 456.793 140.904 460.699 136.447 C 468.004 128.111 469.734 126.748 474.766 125.362 C 477.409 124.635 482.265 124.64 485.721 125.374 M 494.675 148.482 C 485.982 151.49 482.221 160.995 486.631 168.809 C 493.701 181.337 512.899 176.323 512.91 161.947 C 512.912 159.847 512.748 158.214 512.477 157.631 C 511.052 154.57 510.445 153.624 508.893 152.036 C 505.342 148.405 499.278 146.889 494.675 148.482 M 501.843 149.406 C 516.91 153.692 514.121 174.71 498.501 174.599 C 488.032 174.525 482.262 162.144 488.873 153.939 C 492.075 149.964 497.338 148.124 501.843 149.406 M 493.653 155.668 C 493.554 155.927 494.418 157.444 495.591 159.07 C 496.755 160.684 497.849 162.229 498.021 162.503 C 498.194 162.777 498.41 164.683 498.501 166.738 C 498.721 171.693 499.302 171.631 499.424 166.64 L 499.518 162.809 L 501.997 159.367 C 503.36 157.474 504.476 155.762 504.476 155.563 C 504.476 154.525 503.304 155.511 501.452 158.105 C 500.312 159.702 499.33 161.072 499.271 161.149 C 499.061 161.418 497.656 159.865 496.011 157.547 C 494.301 155.137 493.961 154.866 493.653 155.668 M 293.024 157.846 C 290.235 158.491 289.924 158.596 287.454 159.716 C 286.491 160.154 285.627 160.511 285.535 160.511 C 285.443 160.511 284.364 161.177 283.137 161.991 C 263.955 174.716 265.724 203.098 286.335 213.307 C 287.793 214.029 289.213 214.619 289.491 214.619 C 289.769 214.619 290.079 214.752 290.179 214.914 C 290.28 215.077 290.849 215.29 291.444 215.388 C 292.039 215.487 293.198 215.721 294.02 215.909 C 306.49 218.759 323.57 209.745 326.97 198.52 C 327.08 198.154 327.421 197.184 327.728 196.362 C 333.942 179.696 323.473 161.912 304.886 157.562 C 302.534 157.012 295.947 157.169 293.024 157.846 M 302.844 158.531 C 309.512 159.696 313.163 161.225 317.422 164.64 C 333.596 177.608 330.923 202.868 312.398 212.111 C 304.193 216.205 295.17 216.268 286.919 212.288 C 269.751 204.009 265.612 180.748 278.916 167.318 C 285.741 160.429 294.756 157.118 302.844 158.531 M 294.517 165.371 C 279.005 167.854 271.167 186.638 280.27 199.515 C 290.752 214.344 313.53 211.143 319.361 194.022 C 322.166 185.789 319.342 175.487 312.902 170.454 C 312.102 169.829 311.27 169.149 311.053 168.943 C 310.546 168.46 306.852 166.678 304.952 166 C 303.467 165.47 296.516 165.051 294.517 165.371 M 303.314 166.866 C 323.037 171.382 324.733 200.289 305.638 206.476 C 304.634 206.802 303.469 207.199 303.05 207.358 C 301.837 207.82 295.24 207.698 293.242 207.178 C 279.036 203.478 272.907 186.591 281.522 174.888 C 286.465 168.173 295.115 164.989 303.314 166.866 M 294.351 171.92 C 282.368 174.935 278.521 189.788 287.519 198.298 C 297.262 207.513 313.583 200.396 313.601 186.925 C 313.615 176.967 304.02 169.488 294.351 171.92 M 302.842 173.382 C 303.193 173.566 304.078 173.994 304.808 174.333 C 316.762 179.896 313.703 198.813 300.493 201.018 C 284.357 203.712 277.14 181.776 291.68 174.232 C 294.407 172.817 300.827 172.328 302.842 173.382 M 468.625 173.66 C 467.809 173.814 467.278 174.021 464.974 175.081 C 463.475 175.77 459.984 179.262 459.294 180.761 C 459 181.399 458.552 182.355 458.299 182.884 C 457.677 184.183 457.668 190.588 458.287 191.913 C 458.534 192.443 458.981 193.399 459.279 194.038 C 463.048 202.111 475.187 203.836 481.745 197.231 C 488.318 190.611 486.547 178.779 478.418 174.997 C 477.688 174.658 476.806 174.231 476.459 174.05 C 475.776 173.694 469.978 173.405 468.625 173.66 M 523.729 173.76 C 516.753 175.382 511.754 182.84 513.092 189.626 C 516.436 206.579 541.07 204.618 541.07 187.399 C 541.07 178.331 532.627 171.691 523.729 173.76 M 477.164 175.802 C 485.198 179.401 487.112 190.201 480.828 196.485 C 472.719 204.594 459.025 198.994 459.004 187.561 C 458.986 177.988 468.415 171.883 477.164 175.802 M 531.315 175.328 C 537.76 177.419 541.618 185.125 539.34 191.357 C 535.256 202.53 520.663 203.443 515.441 192.851 C 510.491 182.814 520.464 171.806 531.315 175.328 M 366.697 179.394 C 357.601 182.381 359.617 195.376 369.174 195.363 C 377.638 195.352 380.461 184.59 373.181 180.091 C 371.936 179.321 368.156 178.915 366.697 179.394 M 423.759 179.404 C 414.888 182.284 416.988 195.366 426.321 195.366 C 434.85 195.366 437.755 184.947 430.534 180.26 C 429.006 179.268 425.531 178.829 423.759 179.404 M 522.291 179.986 C 521.759 180.517 522.048 194.623 522.594 194.833 C 523.273 195.093 527.984 195.033 528.958 194.752 C 532.011 193.871 532.806 189.676 530.353 187.385 L 529.409 186.503 L 530.22 185.309 C 531.452 183.497 531.218 181.677 529.582 180.353 C 528.86 179.768 522.813 179.464 522.291 179.986 M 372.494 181.181 C 377.386 183.979 377.176 191.119 372.131 193.543 C 365.576 196.692 359.068 188.828 363.476 183.084 C 365.516 180.426 369.65 179.554 372.494 181.181 M 429.944 181.362 C 437.276 186.431 431.328 197.317 423.302 193.52 C 417.932 190.98 417.845 183.913 423.148 181.079 C 425.023 180.077 428.281 180.213 429.944 181.362 M 466.634 181.286 C 466.634 181.576 467.53 183.108 468.625 184.691 C 471.067 188.221 471.073 187.906 468.493 191.792 C 467.325 193.551 466.454 195.075 466.557 195.179 C 467.099 195.72 467.79 195.135 469.18 192.959 C 471.712 188.993 471.485 189.083 473.156 191.379 C 473.951 192.471 474.6 193.493 474.6 193.65 C 474.6 193.975 475.7 195.034 476.037 195.034 C 476.702 195.034 476.058 193.426 474.545 191.305 C 472.576 188.546 472.434 187.628 473.715 185.949 C 474.202 185.31 474.6 184.693 474.6 184.578 C 474.6 184.462 474.974 183.878 475.43 183.279 C 476.224 182.238 476.555 180.76 475.994 180.76 C 475.717 180.76 472.941 184.547 472.941 184.924 C 472.941 185.041 472.649 185.507 472.293 185.96 L 471.646 186.783 L 470.136 184.684 C 469.306 183.53 468.477 182.406 468.294 182.185 C 468.111 181.965 467.961 181.644 467.961 181.474 C 467.961 181.303 467.725 181.073 467.436 180.962 C 466.69 180.676 466.634 180.698 466.634 181.286 M 528.294 181.113 C 531.511 182.235 529.364 186.071 525.52 186.071 L 523.397 186.071 L 523.397 183.941 C 523.397 180.653 524.744 179.876 528.294 181.113 M 529.045 187.899 C 530.179 188.486 530.892 190.504 530.41 191.765 C 529.787 193.396 529.001 193.744 526.176 193.638 L 523.563 193.54 L 523.465 190.914 C 523.411 189.47 523.444 188.088 523.538 187.844 C 523.78 187.211 527.793 187.252 529.045 187.899 M 495.256 199.837 C 481.125 204.25 481.364 223.305 495.598 227.094 C 506.71 230.052 516.707 217.979 511.701 207.648 C 508.612 201.275 501.488 197.891 495.256 199.837 M 501.204 200.824 C 513.747 203.483 515.714 219.53 504.185 225.147 C 501.989 226.217 496.476 226.485 494.651 225.61 C 494.121 225.356 493.179 224.908 492.558 224.614 C 487.153 222.057 484.52 214.035 487.169 208.193 C 489.156 203.811 493.243 201.072 498.833 200.378 C 498.924 200.366 499.991 200.567 501.204 200.824 M 497.837 206.269 C 497.837 206.453 497.333 207.698 496.718 209.035 C 496.102 210.372 495.261 212.213 494.849 213.125 C 494.437 214.038 493.59 215.893 492.967 217.247 C 491.316 220.831 492.011 222.137 493.732 218.686 L 494.683 216.777 L 498.036 216.683 C 501.767 216.578 501.769 216.579 502.982 219.045 C 503.347 219.787 503.833 220.452 504.061 220.522 C 504.554 220.674 504.616 219.514 504.16 218.681 C 503.986 218.364 503.631 217.582 503.37 216.943 C 503.109 216.304 502.505 214.918 502.026 213.863 C 501.548 212.808 501.156 211.866 501.156 211.768 C 501.156 211.537 499.586 208.053 499.004 206.993 C 498.53 206.129 497.837 205.699 497.837 206.269 M 499.497 210.914 C 499.497 211.058 499.87 211.95 500.327 212.896 C 501.49 215.307 501.51 215.283 498.335 215.283 C 496.783 215.283 495.513 215.146 495.513 214.979 C 495.513 214.666 496.185 213.031 497.486 210.178 L 498.224 208.559 L 498.86 209.606 C 499.21 210.181 499.497 210.77 499.497 210.914 M 445.043 217.575 C 438.188 218.548 430.387 223.187 426.288 228.727 C 425.748 229.457 425.156 230.215 424.974 230.411 C 424.031 231.425 421.772 236.557 421.04 239.349 C 417.43 253.127 424.211 267.732 436.924 273.558 C 440.698 275.287 442.507 275.801 446.931 276.4 C 460.181 278.194 474.831 268.494 478.325 255.615 C 478.623 254.52 479.026 253.009 479.223 252.257 C 479.419 251.506 479.58 249.08 479.58 246.868 C 479.58 228.575 463.519 214.953 445.043 217.575 M 341.82 218.331 C 310.616 224.868 304.381 264.757 332.194 279.925 C 334.135 280.984 336.862 282.014 340.041 282.89 C 342.577 283.589 352.231 283.706 354.434 283.064 C 358.372 281.917 359.699 281.463 361.155 280.767 C 362.021 280.352 362.826 280.013 362.944 280.013 C 363.62 280.013 368.878 276.08 370.781 274.15 C 387.996 256.698 382.212 229.506 359.248 219.928 C 355.176 218.23 346.222 217.409 341.82 218.331 M 456.129 219.124 C 473.432 223.542 483.141 241.627 476.522 257.109 C 471.552 268.734 462.099 275.117 449.87 275.105 C 437.534 275.093 427.699 268.37 423.073 256.787 C 421.014 251.632 420.888 242.57 422.808 237.69 C 422.951 237.325 423.337 236.354 423.665 235.532 C 424.441 233.59 427.407 229.091 429.026 227.399 C 433.033 223.214 437.307 220.821 444.061 218.979 C 446.026 218.444 453.833 218.537 456.129 219.124 M 350.617 219.266 C 364.556 220.789 374.957 229.82 378.714 243.665 C 379.32 245.897 379.329 255.718 378.727 257.773 C 378.487 258.594 378.137 259.789 377.951 260.428 C 375.019 270.473 365.254 279.328 354.434 281.753 C 351.916 282.317 342.154 282.575 341.75 282.088 C 341.562 281.86 341.06 281.673 340.635 281.673 C 335.52 281.673 324.474 274.037 320.802 267.964 C 320.449 267.379 320.067 266.827 319.953 266.735 C 319.744 266.568 319.026 265.088 318.263 263.25 C 318.036 262.702 317.653 261.806 317.412 261.258 C 316.931 260.168 316.803 259.541 316.05 254.619 C 315.358 250.097 316.025 243.802 317.599 240.013 C 322.049 229.297 328.948 223.122 339.995 219.968 C 341.074 219.659 344.321 219.21 347.132 218.981 C 347.405 218.958 348.974 219.087 350.617 219.266 M 344.808 221.559 C 341.991 222.334 340.636 222.943 338.916 224.208 L 337.505 225.246 L 337.505 232.037 C 337.505 240.324 338.417 239.515 329.073 239.515 L 321.925 239.515 L 320.652 241.258 C 316.929 246.355 317.13 252.968 321.172 258.354 L 321.982 259.432 L 329.222 259.432 C 338.389 259.432 337.505 258.598 337.505 267.246 L 337.505 274.017 L 339.248 275.312 C 343.695 278.615 349.098 278.767 354.766 275.746 C 357.872 274.092 357.729 274.517 357.83 266.601 L 357.92 259.598 L 364.915 259.509 L 371.91 259.42 L 372.942 258.347 C 376.899 254.234 377.066 247.289 373.347 241.534 L 372.051 239.529 L 364.985 239.439 L 357.92 239.349 L 357.754 232.271 L 357.588 225.193 L 356.426 224.211 C 352.997 221.315 349.009 220.404 344.808 221.559 M 350.617 222.609 C 352.596 223.133 353.996 223.841 355.278 224.966 L 356.426 225.974 L 356.426 232.718 C 356.426 236.427 356.517 239.697 356.628 239.986 C 356.802 240.442 357.745 240.511 363.746 240.511 C 370.455 240.511 370.688 240.534 371.482 241.258 C 374.844 244.324 375.559 252.915 372.76 256.611 L 371.503 258.271 L 364.048 258.437 L 356.592 258.603 L 356.426 265.906 L 356.26 273.208 L 354.7 274.251 C 350.157 277.288 344.288 277.493 340.493 274.749 C 338.704 273.456 338.678 273.337 338.501 265.74 L 338.335 258.603 L 330.629 258.514 L 322.924 258.424 L 322.129 257.352 C 321.692 256.762 321.068 255.756 320.742 255.117 C 320.416 254.478 320.003 253.667 319.824 253.314 C 318.242 250.194 319.989 242.317 322.567 240.943 C 322.841 240.797 326.501 240.603 330.7 240.512 L 338.335 240.345 L 338.424 233.117 L 338.514 225.889 L 340.317 224.735 C 341.309 224.101 342.327 223.582 342.579 223.582 C 342.831 223.582 343.149 223.47 343.284 223.333 C 344.115 222.495 348.537 222.059 350.617 222.609 M 442.662 225.898 C 424.691 231.545 421.3 255.051 436.991 265.2 C 445.269 270.554 458.644 269.121 464.593 262.244 C 475.832 249.251 471.267 231.224 455.428 226.054 C 452.231 225.01 445.739 224.931 442.662 225.898 M 452.819 226.591 C 458.173 227.975 461.27 229.753 464.449 233.266 C 476.272 246.331 466.658 267.399 448.874 267.399 C 434.516 267.399 423.98 252.379 429.431 239.681 C 431.356 235.197 433.141 232.887 436.67 230.312 C 439.487 228.257 440.602 227.746 444.725 226.622 C 446.335 226.183 451.17 226.164 452.819 226.591 M 444.958 231.734 C 435.903 234.207 430.911 244.625 434.789 252.959 C 440.861 266.011 459.399 264.93 463.974 251.257 C 467.732 240.021 456.571 228.563 444.958 231.734 M 453.879 233.133 C 454.23 233.317 455.115 233.745 455.845 234.084 C 460.861 236.418 464.381 243.624 463.2 249.142 C 459.458 266.622 434.095 263.782 434.816 245.963 C 435.069 239.697 439.745 234.04 445.722 232.768 C 447.032 232.489 453.174 232.764 453.879 233.133" stroke="none" fill="black" fill-rule="evenodd"/>
  </g>
  <ellipse style="fill: rgb(216, 216, 216); stroke: rgb(0, 0, 0);" cx="88.364" cy="193.053" rx="75.467" ry="39.5" transform="matrix(1, 0, 0, 1, 0, 1.4210854715202004e-14)" id="giraffe0"/>
  <path style="fill: rgb(216, 216, 216); stroke: rgb(0, 0, 0);" d="M 260.271 215.894 L 134.282 138.338" transform="matrix(1, 0, 0, 1, 0, 1.4210854715202004e-14)"/>
  <path style="fill: rgb(216, 216, 216); stroke: rgb(0, 0, 0); transform-origin: 508.157px 147.617px;" d="M 496.21 128.376 L 520.104 166.857" transform="matrix(-1, 0, 0, -1, 0.000137214574, -0.000026118263)"/>
  <ellipse style="fill: rgb(216, 216, 216); stroke: rgb(0, 0, 0);" cx="107.044" cy="116.702" rx="67.824" ry="30.569" transform="matrix(1, 0, 0, 1, 0, 1.4210854715202004e-14)"/>
  <ellipse style="fill: rgb(216, 216, 216); stroke: rgb(0, 0, 0);" cx="243.78" cy="97.932" rx="68.142" ry="25.558" transform="matrix(1, 0, 0, 1, 0, 1.4210854715202004e-14)"/>
  <ellipse style="fill: rgb(216, 216, 216); stroke: rgb(0, 0, 0);" cx="527.692" cy="103.393" rx="73.874" ry="29.295" transform="matrix(1, 0, 0, 1, 0, 1.4210854715202004e-14)"/>
  <path style="fill: rgb(216, 216, 216); stroke: rgb(0, 0, 0);" d="M 532.205 212.073 L 597.163 158.578" transform="matrix(1, 0, 0, 1, 0, 1.4210854715202004e-14)"/>
  <ellipse style="fill: rgb(216, 216, 216); stroke: rgb(0, 0, 0);" cx="660.528" cy="148.707" rx="87.566" ry="34.071" transform="matrix(1, 0, 0, 1, 0, 1.4210854715202004e-14)"/>
  <path style="fill: rgb(216, 216, 216); stroke: rgb(0, 0, 0); transform-origin: 460.838px 388.498px;" d="M 473.536 423.541 L 448.143 353.45" transform="matrix(-1, 0, 0, -1, -0.000047301113, 0.000011578144)"/>
  <path style="fill: rgb(216, 216, 216); stroke: rgb(0, 0, 0);" d="M 274.739 252.778 L 142.904 217.39" transform="matrix(1, 0, 0, 1, 0, 1.4210854715202004e-14)"/>
  <path style="fill: rgb(216, 216, 216); stroke: rgb(0, 0, 0);" d="M 338.512 309.399 L 153.153 268.275" transform="matrix(1, 0, 0, 1, 0, 1.4210854715202004e-14)"/>
  <path style="fill: rgb(216, 216, 216); stroke: rgb(0, 0, 0);" d="M 290.1 168.397 L 201.618 116.286" transform="matrix(1, 0, 0, 1, 0, 1.4210854715202004e-14)"/>
  <ellipse style="fill: rgb(216, 216, 216); stroke: rgb(0, 0, 0);" cx="309.43" cy="467.679" rx="77.896" ry="30.942" transform="matrix(1, 0, 0, 1, 0, 1.4210854715202004e-14)"/>
  <ellipse style="fill: rgb(216, 216, 216); stroke: rgb(0, 0, 0);" cx="73.57" cy="404.168" rx="77.896" ry="30.942" transform="matrix(1, 0, 0, 1, 0, 1.4210854715202004e-14)"/>
  <ellipse style="fill: rgb(216, 216, 216); stroke: rgb(0, 0, 0);" cx="100.169" cy="271.174" rx="77.896" ry="30.942" transform="matrix(1, 0, 0, 1, 0, 1.4210854715202004e-14)"/>
  <ellipse style="fill: rgb(216, 216, 216); stroke: rgb(0, 0, 0);" cx="91.484" cy="338.485" rx="77.896" ry="30.942" transform="matrix(1, 0, 0, 1, 0, 1.4210854715202004e-14)"/>
  <path style="fill: rgb(216, 216, 216); stroke: rgb(0, 0, 0);" d="M 318.93 327.085 L 169.109 339.57" transform="matrix(1, 0, 0, 1, 0, 1.4210854715202004e-14)"/>
  <path style="fill: rgb(216, 216, 216); stroke: rgb(0, 0, 0);" d="M 371.042 334.142 L 325.987 439.452" transform="matrix(1, 0, 0, 1, 0, 1.4210854715202004e-14)"/>
  <path style="fill: rgb(216, 216, 216); stroke: rgb(0, 0, 0);" d="M 339.558 352.598 L 151.195 404.71" transform="matrix(1, 0, 0, 1, 0, 1.4210854715202004e-14)"/>
  <ellipse style="fill: rgb(216, 216, 216); stroke: rgb(0, 0, 0);" cx="381.822" cy="102.444" rx="65.14" ry="26.87" transform="matrix(1, 0, 0, 1, 0, 1.4210854715202004e-14)"/>
  <ellipse style="fill: rgb(216, 216, 216); stroke: rgb(0, 0, 0);" cx="405.708" cy="159.712" rx="65.14" ry="26.87" transform="matrix(1, 0, 0, 1, 0, 1.4210854715202004e-14)"/>
  <path style="fill: rgb(216, 216, 216); stroke: rgb(0, 0, 0);" d="M 361.195 268.278 L 318.855 109.229" transform="matrix(1, 0, 0, 1, 0, 1.4210854715202004e-14)"/>
  <path style="fill: rgb(216, 216, 216); stroke: rgb(0, 0, 0);" d="M 427.421 258.508 L 444.792 180.883" transform="matrix(1, 0, 0, 1, 0, 1.4210854715202004e-14)"/>
  <ellipse style="fill: rgb(216, 216, 216); stroke: rgb(0, 0, 0);" cx="463.791" cy="457.741" rx="75.467" ry="39.5" transform="matrix(1, 0, 0, 1, 0, 1.4210854715202004e-14)" id="giraffeinyourhouse"/>
  <ellipse style="fill: rgb(216, 216, 216); stroke: rgb(0, 0, 0);" cx="665.242" cy="456.792" rx="80.339" ry="39.084" transform="matrix(1, 0, 0, 1, 0, 1.4210854715202004e-14)"/>
  <ellipse style="fill: rgb(216, 216, 216); stroke: rgb(0, 0, 0);" cx="743.41" cy="381.338" rx="80.339" ry="39.084" transform="matrix(1, 0, 0, 1, 0, 1.4210854715202004e-14)"/>
  <ellipse style="fill: rgb(216, 216, 216); stroke: rgb(0, 0, 0);" cx="744.496" cy="295.571" rx="80.339" ry="39.084" transform="matrix(1, 0, 0, 1, 0, 1.4210854715202004e-14)"/>
  <ellipse style="fill: rgb(216, 216, 216); stroke: rgb(0, 0, 0);" cx="644.614" cy="227.174" rx="80.339" ry="39.084" transform="matrix(1, 0, 0, 1, 0, 1.4210854715202004e-14)"/>
  <path style="fill: rgb(216, 216, 216); stroke: rgb(0, 0, 0);" d="M 467.108 278.924 L 586.531 465.115" transform="matrix(1, 0, 0, 1, 0, 1.4210854715202004e-14)"/>
  <path style="fill: rgb(216, 216, 216); stroke: rgb(0, 0, 0);" d="M 509.449 295.209 L 666.87 394.004" transform="matrix(1, 0, 0, 1, 0, 1.4210854715202004e-14)"/>
  <path style="fill: rgb(216, 216, 216); stroke: rgb(0, 0, 0);" d="M 528.991 277.296 L 678.269 316.38" transform="matrix(1, 0, 0, 1, 0, 1.4210854715202004e-14)"/>
  <path style="fill: rgb(216, 216, 216); stroke: rgb(0, 0, 0);" d="M 494.792 227.355 L 593.588 196.414" transform="matrix(1, 0, 0, 1, 0, 1.4210854715202004e-14)"/>
  <text style="white-space: pre; fill: rgb(51, 51, 51); font-family: Arial, sans-serif; font-size: 28px;" x="-7.764" y="20.279" transform="matrix(2.538022994995117, 0, 0, 2.4137930870056152, 11.941205202657045, 7.399901977179979)" id="title">TITLE</text>
<clipPath id="clip-rigatoni-0"><ellipse style="fill: rgb(216, 216, 216); stroke: rgb(0, 0, 0);" cx="88.364" cy="193.053" rx="75.467" ry="39.5" transform="matrix(1, 0, 0, 1, 0, 1.4210854715202004e-14)" id="giraffe0"/></clipPath><text id="txt-clip-rigatoni-0" font-size="12" text-anchor="middle" clip-path="url(#clip-rigatoni-0)" x="88.364" y="193.053"><tspan x="88.364" dy="-0.4em" id="lstick">Giraffe Line 1</tspan><tspan x="88.364" dy="1.2em" id="lstick-press">Giraffe Line 2</tspan></text><clipPath id="clip-fusilli-1"><ellipse style="fill: rgb(216, 216, 216); stroke: rgb(0, 0, 0);" cx="107.044" cy="116.702" rx="67.824" ry="30.569" transform="matrix(1, 0, 0, 1, 0, 1.4210854715202004e-14)"/></clipPath><text id="left-button" font-size="12" text-anchor="middle" clip-path="url(#clip-fusilli-1)" x="107.044" y="116.702">fusilli</text><clipPath id="clip-fettuccine-2"><ellipse style="fill: rgb(216, 216, 216); stroke: rgb(0, 0, 0);" cx="243.78" cy="97.932" rx="68.142" ry="25.558" transform="matrix(1, 0, 0, 1, 0, 1.4210854715202004e-14)"/></clipPath><text id="left-trigger" font-size="12" text-anchor="middle" clip-path="url(#clip-fettuccine-2)" x="243.78" y="97.932">fettuccine</text><clipPath id="clip-linguine-3"><ellipse style="fill: rgb(216, 216, 216); stroke: rgb(0, 0, 0);" cx="527.692" cy="103.393" rx="73.874" ry="29.295" transform="matrix(1, 0, 0, 1, 0, 1.4210854715202004e-14)"/></clipPath><text id="right-trigger" font-size="12" text-anchor="middle" clip-path="url(#clip-linguine-3)" x="527.692" y="103.393">linguine</text><clipPath id="clip-linguine-4"><ellipse style="fill: rgb(216, 216, 216); stroke: rgb(0, 0, 0);" cx="660.528" cy="148.707" rx="87.566" ry="34.071" transform="matrix(1, 0, 0, 1, 0, 1.4210854715202004e-14)"/></clipPath><text id="right-button" font-size="12" text-anchor="middle" clip-path="url(#clip-linguine-4)" x="660.528" y="148.707">linguine</text><clipPath id="clip-penne-5"><ellipse style="fill: rgb(216, 216, 216); stroke: rgb(0, 0, 0);" cx="309.43" cy="467.679" rx="77.896" ry="30.942" transform="matrix(1, 0, 0, 1, 0, 1.4210854715202004e-14)"/></clipPath><text id="dpad-r" font-size="12" text-anchor="middle" clip-path="url(#clip-penne-5)" x="309.43" y="467.679">penne</text><clipPath id="clip-macaroni-6"><ellipse style="fill: rgb(216, 216, 216); stroke: rgb(0, 0, 0);" cx="73.57" cy="404.168" rx="77.896" ry="30.942" transform="matrix(1, 0, 0, 1, 0, 1.4210854715202004e-14)"/></clipPath><text id="dpad-d" font-size="12" text-anchor="middle" clip-path="url(#clip-macaroni-6)" x="73.57" y="404.168">macaroni</text><clipPath id="clip-penne-7"><ellipse style="fill: rgb(216, 216, 216); stroke: rgb(0, 0, 0);" cx="100.169" cy="271.174" rx="77.896" ry="30.942" transform="matrix(1, 0, 0, 1, 0, 1.4210854715202004e-14)"/></clipPath><text id="dpad-u" font-size="12" text-anchor="middle" clip-path="url(#clip-penne-7)" x="100.169" y="271.174">penne</text><clipPath id="clip-fusilli-8"><ellipse style="fill: rgb(216, 216, 216); stroke: rgb(0, 0, 0);" cx="91.484" cy="338.485" rx="77.896" ry="30.942" transform="matrix(1, 0, 0, 1, 0, 1.4210854715202004e-14)"/></clipPath><text id="dpad-l" font-size="12" text-anchor="middle" clip-path="url(#clip-fusilli-8)" x="91.484" y="338.485">fusilli</text><clipPath id="clip-spaghetti-9"><ellipse style="fill: rgb(216, 216, 216); stroke: rgb(0, 0, 0);" cx="381.822" cy="102.444" rx="65.14" ry="26.87" transform="matrix(1, 0, 0, 1, 0, 1.4210854715202004e-14)"/></clipPath><text id="back" font-size="12" text-anchor="middle" clip-path="url(#clip-spaghetti-9)" x="381.822" y="102.444">spaghetti</text><clipPath id="clip-penne-10"><ellipse style="fill: rgb(216, 216, 216); stroke: rgb(0, 0, 0);" cx="405.708" cy="159.712" rx="65.14" ry="26.87" transform="matrix(1, 0, 0, 1, 0, 1.4210854715202004e-14)"/></clipPath><text id="start" font-size="12" text-anchor="middle" clip-path="url(#clip-penne-10)" x="405.708" y="159.712">penne</text><clipPath id="clip-spaghetti-11"><ellipse style="fill: rgb(216, 216, 216); stroke: rgb(0, 0, 0);" cx="463.791" cy="457.741" rx="75.467" ry="39.5" transform="matrix(1, 0, 0, 1, 0, 1.4210854715202004e-14)" id="giraffeinyourhouse"/></clipPath><text id="txt-clip-spaghetti-11" font-size="12" text-anchor="middle" clip-path="url(#clip-spaghetti-11)" x="463.791" y="457.741"><tspan x="463.791" dy="-0.4em" id="rstick">Giraffe Line 1</tspan><tspan x="463.791" dy="1.2em" id="rstick-press">Giraffe Line 2</tspan></text><clipPath id="clip-linguine-12"><ellipse style="fill: rgb(216, 216, 216); stroke: rgb(0, 0, 0);" cx="665.242" cy="456.792" rx="80.339" ry="39.084" transform="matrix(1, 0, 0, 1, 0, 1.4210854715202004e-14)"/></clipPath><text id="x" font-size="12" text-anchor="middle" clip-path="url(#clip-linguine-12)" x="665.242" y="456.792">linguine</text><clipPath id="clip-penne-13"><ellipse style="fill: rgb(216, 216, 216); stroke: rgb(0, 0, 0);" cx="743.41" cy="381.338" rx="80.339" ry="39.084" transform="matrix(1, 0, 0, 1, 0, 1.4210854715202004e-14)"/></clipPath><text id="a" font-size="12" text-anchor="middle" clip-path="url(#clip-penne-13)" x="743.41" y="381.338">penne</text><clipPath id="clip-penne-14"><ellipse style="fill: rgb(216, 216, 216); stroke: rgb(0, 0, 0);" cx="744.496" cy="295.571" rx="80.339" ry="39.084" transform="matrix(1, 0, 0, 1, 0, 1.4210854715202004e-14)"/></clipPath><text id="b" font-size="12" text-anchor="middle" clip-path="url(#clip-penne-14)" x="744.496" y="295.571">penne</text><clipPath id="clip-spaghetti-15"><ellipse style="fill: rgb(216, 216, 216); stroke: rgb(0, 0, 0);" cx="644.614" cy="227.174" rx="80.339" ry="39.084" transform="matrix(1, 0, 0, 1, 0, 1.4210854715202004e-14)"/></clipPath><text id="y" font-size="12" text-anchor="middle" clip-path="url(#clip-spaghetti-15)" x="644.614" y="227.174">spaghetti</text></svg>